<?xml version="1.0" standalone="no"?>
<!DOCTYPE svg PUBLIC "-//W3C//DTD SVG 20010904//EN"
 "http://www.w3.org/TR/2001/REC-SVG-20010904/DTD/svg10.dtd">
<svg version="1.0" xmlns="http://www.w3.org/2000/svg"
 width="730.000000pt" height="730.000000pt" viewBox="0 0 730.000000 730.000000"
 preserveAspectRatio="xMidYMid meet">
<metadata>
Created by potrace 1.11, written by Peter Selinger 2001-2013
</metadata>
<g transform="translate(0.000000,730.000000) scale(0.100000,-0.100000)"
fill="#000000" stroke="none">
<path d="M4348 6660 c-15 -4 -46 -11 -68 -14 -23 -3 -47 -9 -54 -13 -41 -23
-215 -280 -216 -317 0 -5 -10 -29 -22 -53 l-22 -44 -18 88 c-20 97 -29 119
-73 178 -53 71 -106 115 -139 115 -16 0 -58 7 -93 16 -52 13 -67 13 -79 3 -14
-11 -13 -14 8 -26 13 -7 16 -13 8 -12 -8 1 -24 1 -34 0 -33 -2 -8 -14 37 -18
66 -6 104 -22 135 -56 15 -18 42 -39 58 -49 30 -17 66 -80 90 -158 15 -50 11
-66 -7 -26 -7 14 -17 26 -22 26 -6 0 -7 3 -4 6 4 4 -1 19 -10 35 -17 28 -110
81 -168 95 -16 3 -44 15 -61 25 -29 17 -32 18 -38 3 -3 -9 -12 -14 -20 -11 -8
3 -22 0 -31 -7 -15 -11 -9 -15 49 -34 107 -35 206 -89 206 -112 0 -11 13 -34
29 -52 27 -31 47 -83 58 -150 2 -17 -3 -38 -15 -55 -34 -49 -103 -164 -179
-297 -41 -71 -82 -141 -92 -155 -10 -14 -59 -98 -110 -186 -95 -164 -183 -315
-299 -510 -36 -60 -76 -130 -90 -155 -14 -25 -57 -99 -97 -165 -77 -128 -125
-211 -165 -287 -14 -27 -33 -57 -43 -68 -9 -11 -14 -20 -11 -20 3 0 -2 -7 -10
-16 -9 -8 -20 -12 -26 -9 -6 4 -10 3 -9 -2 1 -4 1 -17 0 -28 -1 -17 -3 -18
-11 -5 -8 13 -10 12 -10 -2 0 -10 -6 -18 -14 -18 -8 0 -17 -7 -20 -16 -3 -8
-11 -12 -16 -9 -6 4 -10 3 -9 -2 3 -18 -3 -47 -8 -36 -3 9 -10 7 -25 -7 -12
-11 -17 -24 -13 -31 5 -8 4 -10 -3 -5 -7 4 -12 2 -12 -4 0 -6 -5 -8 -12 -4 -8
5 -9 2 -4 -11 5 -15 4 -16 -9 -5 -9 7 -18 10 -22 6 -3 -3 -2 -6 4 -6 5 0 10
-7 10 -15 0 -11 -3 -12 -14 -3 -8 6 -13 7 -12 2 4 -21 -2 -35 -11 -29 -6 3
-13 -1 -16 -9 -3 -9 -10 -14 -14 -11 -5 3 -12 0 -16 -6 -4 -8 -3 -9 4 -5 7 4
12 3 12 -2 0 -6 -7 -12 -15 -16 -8 -3 -15 -12 -15 -19 0 -8 -10 -22 -23 -31
-12 -9 -15 -14 -7 -10 12 7 13 5 3 -8 -7 -8 -9 -19 -5 -24 4 -4 -2 -2 -12 6
-13 10 -17 10 -12 3 4 -8 2 -13 -4 -13 -6 0 -8 -4 -5 -10 3 -5 0 -10 -7 -10
-11 0 -10 -2 0 -9 11 -7 10 -10 -3 -15 -9 -3 -22 -3 -28 1 -7 4 -6 -1 2 -10
12 -15 11 -17 -3 -17 -9 0 -16 -5 -16 -11 0 -5 6 -7 13 -4 6 4 3 -1 -7 -9 -11
-9 -16 -16 -10 -16 5 -1 -2 -10 -15 -20 -13 -11 -20 -20 -15 -20 5 0 -7 -14
-26 -31 -19 -17 -27 -26 -17 -19 10 7 17 8 17 2 0 -11 -25 -34 -31 -28 -2 2
-11 -3 -19 -12 -13 -14 -12 -15 3 -9 9 3 17 2 17 -3 0 -6 -5 -10 -11 -10 -8 0
-7 -6 2 -17 13 -15 12 -15 -8 -5 -15 8 -24 9 -28 2 -4 -6 -1 -9 6 -8 8 2 13
-7 13 -22 1 -18 -4 -25 -16 -24 -14 1 -16 -2 -7 -17 9 -18 2 -24 -24 -20 -5 1
-6 -3 -2 -9 3 -6 12 -8 18 -4 7 3 1 -4 -13 -16 -14 -12 -19 -19 -12 -15 6 3
12 2 12 -3 0 -6 -6 -12 -14 -15 -7 -3 -16 -15 -19 -26 -3 -12 -1 -19 4 -15 5
3 9 1 9 -5 0 -5 -6 -12 -12 -14 -10 -4 -9 -8 2 -16 10 -7 11 -11 3 -11 -7 0
-13 -8 -13 -18 0 -10 -6 -24 -12 -31 -11 -11 -10 -12 1 -6 11 6 13 4 8 -9 -4
-10 -7 -20 -7 -22 0 -3 -6 -2 -12 2 -10 6 -10 4 -2 -7 6 -8 9 -29 7 -47 -2
-22 1 -31 8 -26 6 3 3 -6 -7 -22 -11 -15 -13 -25 -7 -21 18 11 16 -4 -2 -30
-11 -16 -12 -24 -4 -29 7 -4 9 -3 5 4 -3 6 -1 14 5 18 8 4 9 -5 6 -30 -3 -20
-1 -36 5 -36 5 0 6 -5 3 -10 -4 -6 -11 -7 -17 -4 -5 4 -3 -4 6 -17 10 -16 12
-29 6 -39 -5 -9 -5 -19 2 -27 6 -7 8 -22 5 -33 -3 -11 0 -20 6 -20 8 0 9 -3 1
-8 -15 -10 -8 -198 8 -219 6 -7 4 -14 -3 -19 -8 -5 -9 -3 -4 6 5 9 4 11 -4 6
-6 -4 -8 -13 -4 -19 8 -13 11 -127 3 -127 -7 0 -3 -248 5 -260 3 -5 1 -10 -5
-10 -8 0 -8 -6 0 -20 6 -11 7 -20 2 -20 -5 0 -8 -10 -7 -22 1 -13 -3 -26 -9
-30 -7 -5 -6 -8 3 -8 11 0 11 -3 1 -15 -7 -9 -10 -18 -7 -21 3 -3 2 -17 -3
-30 -7 -17 -6 -24 3 -24 8 0 7 -4 -3 -10 -8 -5 -10 -10 -5 -10 6 0 3 -5 -5
-10 -8 -5 -10 -10 -4 -10 6 0 10 -10 8 -23 -1 -12 -3 -22 -4 -22 -1 0 -3 -15
-5 -33 -1 -18 -5 -35 -8 -39 -4 -3 -2 -14 4 -24 5 -11 6 -19 1 -19 -5 0 -8
-16 -7 -35 2 -19 -1 -35 -6 -35 -6 0 -6 -7 0 -18 6 -11 6 -24 -1 -36 -8 -14
-7 -21 3 -27 12 -7 12 -9 0 -9 -11 0 -12 -3 -3 -12 7 -7 8 -17 1 -30 -7 -13
-6 -18 2 -18 8 0 9 -4 0 -13 -6 -8 -7 -17 -1 -23 5 -5 10 -28 11 -51 2 -24 7
-43 11 -43 4 0 8 -18 8 -39 0 -22 4 -42 9 -45 4 -3 7 -17 6 -31 -2 -14 1 -27
5 -30 5 -3 7 -12 4 -19 -3 -7 3 -16 13 -20 15 -6 15 -8 3 -16 -12 -8 -12 -10
-1 -10 7 0 11 -6 7 -15 -3 -8 -2 -15 3 -15 4 0 8 -6 9 -12 6 -49 10 -61 21
-68 11 -6 11 -9 0 -13 -11 -4 -11 -6 -1 -6 7 -1 10 -5 7 -11 -3 -5 0 -10 7
-10 9 0 9 -3 -2 -10 -13 -8 -12 -10 3 -10 9 0 17 -5 17 -11 0 -5 -4 -8 -8 -5
-5 3 -9 -1 -9 -9 0 -8 4 -12 8 -9 9 5 38 -74 41 -113 1 -7 5 -13 10 -13 4 0 8
-9 8 -20 0 -11 4 -20 9 -20 6 0 8 -9 6 -20 -2 -11 1 -20 6 -20 6 0 7 -4 4 -10
-3 -5 -1 -10 4 -10 6 0 11 -9 11 -20 0 -11 3 -20 8 -20 4 0 13 -9 20 -21 8
-12 9 -18 4 -15 -6 3 -5 -5 1 -18 7 -13 15 -22 19 -20 5 3 8 -6 8 -20 0 -14 8
-30 18 -35 10 -5 18 -20 19 -32 1 -13 10 -29 19 -36 10 -7 15 -13 11 -13 -4 0
-3 -9 3 -20 7 -12 16 -18 23 -13 7 4 5 -2 -3 -13 -8 -10 -11 -16 -6 -12 10 8
36 -15 36 -31 0 -6 5 -11 10 -11 6 0 10 -7 10 -15 0 -8 4 -15 10 -15 5 0 9 -6
7 -12 -1 -7 4 -12 11 -11 15 4 16 -9 1 -24 -9 -9 -6 -10 11 -6 20 5 21 4 11
-15 -9 -18 -8 -19 12 -15 18 4 19 3 7 -6 -11 -8 -12 -11 -2 -11 7 0 10 -5 6
-12 -4 -6 -3 -8 3 -5 6 4 19 -3 29 -16 13 -14 14 -18 4 -12 -9 6 -7 2 3 -7 11
-10 16 -18 12 -18 -3 0 0 -7 9 -15 8 -8 19 -15 25 -15 5 0 13 -9 16 -20 3 -11
13 -20 21 -20 8 0 12 -4 9 -10 -3 -5 3 -10 14 -10 11 0 23 -5 26 -11 9 -13 53
-31 83 -34 13 -1 27 -6 30 -11 8 -10 26 -16 57 -18 11 0 23 -5 27 -11 5 -6 8
-5 8 3 0 7 5 10 10 7 6 -4 8 -10 6 -14 -3 -4 1 -8 8 -8 8 0 12 6 10 12 -4 8
11 11 51 8 31 -2 65 2 77 8 11 6 18 7 14 1 -3 -5 8 -12 24 -14 23 -4 27 -2 19
8 -8 10 -6 12 10 11 11 0 18 -4 15 -8 -5 -8 27 -22 34 -14 3 3 0 5 -6 5 -7 0
-12 4 -12 10 0 5 7 6 17 3 10 -4 14 -2 9 5 -4 7 1 10 14 7 11 -2 22 1 26 6 4
6 11 6 19 -1 17 -14 35 -5 35 18 0 14 2 13 13 -3 11 -14 16 -15 22 -5 6 9 4
11 -5 5 -9 -5 -11 -4 -6 4 7 11 45 9 66 -4 6 -3 13 1 16 10 6 14 9 14 27 -2
11 -10 18 -13 15 -8 -3 6 0 16 8 23 8 7 14 9 14 4 0 -5 7 -9 15 -9 9 0 11 4 6
11 -6 7 0 11 20 12 17 1 26 -3 23 -10 -3 -6 4 0 15 13 20 22 25 21 22 -4 -1
-5 9 2 22 18 19 22 25 25 36 15 11 -11 13 -10 8 3 -4 14 0 16 23 15 25 -2 27
0 17 13 -10 12 -9 13 10 2 20 -10 22 -9 16 6 -6 15 -4 16 8 6 10 -8 19 -9 29
-1 12 8 12 9 -3 4 -11 -4 -16 -2 -11 5 3 6 17 9 29 7 16 -4 22 -1 18 9 -4 9 3
13 22 13 14 0 24 4 21 9 -3 4 5 7 19 6 17 -2 22 1 18 11 -3 9 1 14 12 14 10 0
13 -5 9 -12 -4 -7 -3 -8 5 -4 6 4 9 11 6 16 -3 4 3 14 12 21 12 10 14 10 9 2
-4 -7 -2 -13 3 -13 6 0 11 7 11 15 0 13 19 20 44 16 5 -1 6 5 2 14 -3 9 -2 13
3 10 5 -3 12 -1 16 5 4 6 11 8 16 4 5 -3 9 -2 8 3 -3 20 2 27 11 13 8 -12 10
-10 10 9 0 21 2 22 17 10 15 -12 16 -12 10 5 -6 14 -4 17 9 12 11 -4 15 -2 11
8 -4 10 -1 13 8 9 8 -3 13 -8 10 -12 -2 -4 3 -8 11 -8 10 0 11 4 4 11 -12 12
-13 29 -1 22 5 -3 11 1 15 9 3 8 11 15 18 15 9 0 8 -3 -2 -10 -9 -6 -10 -10
-3 -10 7 0 16 6 20 14 7 14 12 16 31 16 4 0 2 4 -4 8 -6 4 -3 13 9 25 19 19
19 18 12 -5 l-7 -23 17 23 c9 12 20 20 25 17 4 -3 6 4 3 15 -3 12 0 20 6 20 7
0 9 -6 5 -12 -5 -10 -3 -10 7 0 12 11 12 14 -1 22 -8 5 -10 10 -4 10 5 0 15
-5 22 -12 9 -9 11 -7 7 10 -4 22 18 48 34 38 5 -4 7 3 3 16 -4 17 -2 20 12 15
10 -4 15 -3 11 3 -10 16 15 52 32 46 13 -6 14 -4 3 9 -11 13 -11 16 1 13 8 -2
13 2 12 9 -3 15 46 55 58 47 5 -3 6 2 3 10 -4 11 0 16 11 16 15 0 15 3 5 15
-11 13 -10 14 5 9 13 -5 16 -4 11 4 -4 8 0 12 11 12 15 0 16 2 3 10 -12 7 -10
11 10 19 14 5 19 10 11 10 -8 1 -4 9 10 22 21 18 22 20 4 15 -19 -6 -19 -5 -3
7 10 8 15 17 11 20 -3 4 -1 7 6 7 8 0 11 6 7 16 -4 10 -2 13 6 8 8 -5 9 -2 5
9 -3 10 -2 17 3 17 5 0 6 7 3 17 -5 12 -3 14 7 8 9 -6 11 -4 5 5 -4 7 -2 16 6
21 12 7 12 9 0 9 -11 0 -9 4 5 15 10 8 15 15 10 15 -4 0 -1 11 8 25 9 13 17
32 19 42 1 10 7 24 11 32 7 11 6 12 -5 6 -11 -7 -12 -6 -2 6 7 9 14 24 16 35
1 10 7 25 11 33 6 10 5 12 -2 7 -8 -5 -10 -2 -6 8 3 9 12 16 19 16 24 0 89 43
122 79 117 132 174 224 184 301 2 14 8 28 13 31 5 4 9 18 9 32 0 14 6 28 14
32 11 3 12 9 5 18 -5 6 -8 21 -5 32 2 11 6 38 8 60 2 22 12 65 24 94 24 63 35
138 34 233 0 48 4 68 14 72 11 5 11 9 1 25 -10 16 -9 23 3 38 9 11 15 36 14
65 -1 29 2 45 9 41 5 -4 7 1 3 10 -3 10 -2 17 4 17 6 0 7 5 4 10 -4 6 -11 8
-16 5 -15 -10 -10 2 8 16 15 12 16 12 8 -1 -8 -13 -7 -13 8 -1 18 14 23 26 8
16 -6 -3 -15 3 -20 14 -15 27 -14 38 2 17 12 -16 13 -16 13 3 0 12 -4 21 -9
21 -4 0 -5 5 -2 10 3 6 0 10 -7 11 -7 0 -4 4 7 9 11 5 14 9 6 9 -10 1 -11 4
-2 15 9 11 8 15 -5 20 -15 6 -15 8 2 28 11 12 13 18 7 14 -15 -9 -18 10 -3 19
6 4 4 13 -6 22 -15 15 -15 18 2 30 16 12 12 18 -9 14 -4 -1 0 11 10 26 10 15
12 24 6 20 -7 -5 -13 -4 -13 0 0 5 6 15 13 22 8 9 8 12 0 7 -18 -10 -21 27 -3
42 13 12 13 13 -4 8 -15 -5 -17 -4 -8 7 7 8 8 18 4 22 -4 5 1 5 11 2 11 -4 16
-3 12 3 -3 6 -13 10 -21 10 -8 0 -14 5 -14 11 0 6 6 9 13 6 8 -3 13 3 13 18 0
13 -4 21 -8 19 -5 -3 -5 -10 -2 -16 4 -7 2 -8 -5 -4 -6 4 -9 12 -5 17 3 5 1
16 -6 24 -8 10 -8 15 1 21 8 4 9 3 5 -4 -4 -7 -2 -12 3 -12 16 0 13 20 -4 26
-8 4 -12 10 -9 15 3 5 10 6 16 3 7 -4 8 -2 4 5 -4 6 -12 9 -17 6 -5 -4 -7 4
-5 17 2 13 -2 32 -8 43 -11 20 -16 46 -17 78 0 11 -5 15 -12 10 -7 -4 -6 0 2
10 10 13 10 17 1 17 -8 0 -10 8 -7 21 3 12 0 22 -9 26 -8 3 -14 12 -14 20 0 8
5 11 13 8 6 -4 4 0 -6 8 -14 11 -15 16 -5 20 9 4 7 6 -4 6 -11 1 -15 6 -12 15
3 8 1 16 -3 19 -5 3 -8 20 -7 36 1 17 -2 28 -7 25 -5 -3 -9 2 -9 10 0 9 -5 16
-11 16 -8 0 -7 6 2 17 10 11 10 14 2 9 -8 -4 -13 -1 -13 9 0 9 -4 14 -8 11 -4
-2 -9 5 -9 16 -1 11 -9 28 -17 37 -9 10 -13 21 -9 25 4 4 -1 4 -10 0 -10 -3
-17 -3 -16 2 5 26 -2 43 -16 38 -10 -4 -13 0 -10 15 3 19 -5 26 -28 22 -4 0
-6 2 -5 6 2 13 -16 52 -27 55 -5 2 -9 8 -9 15 1 6 -5 9 -14 5 -11 -4 -14 -1
-9 12 4 9 3 15 -1 12 -5 -3 -15 4 -22 15 -8 10 -20 19 -28 19 -7 0 -11 3 -9 8
6 9 -19 33 -27 25 -3 -4 -6 1 -6 10 0 10 -5 17 -11 17 -5 0 -7 5 -4 10 3 6 -1
10 -9 10 -9 0 -16 7 -16 16 0 8 -4 13 -9 10 -7 -5 -55 137 -67 198 -2 11 -8
32 -13 46 -12 30 -78 250 -254 840 -30 102 -78 263 -107 358 -28 96 -53 182
-55 193 -2 10 -20 69 -39 131 -19 62 -49 165 -66 228 -30 109 -30 116 -13 125
9 6 29 22 44 37 25 26 35 28 125 33 132 8 149 12 134 30 -7 8 -18 15 -26 15
-7 0 -17 7 -22 17 -7 11 -15 14 -28 8 -23 -10 -134 -13 -140 -4 -5 9 24 20 71
25 22 3 54 9 71 15 26 8 44 4 113 -25 44 -19 79 -30 76 -26 -9 15 -158 72
-195 75 -43 3 -169 -21 -187 -37 -37 -31 20 73 61 110 20 18 36 30 36 27 0 -2
10 -1 23 4 13 5 40 12 60 15 20 3 51 13 69 21 l33 15 -45 -5 c-25 -2 -61 -9
-80 -15 -49 -14 -63 -13 -56 6 4 12 2 15 -9 10 -23 -9 -18 7 10 28 14 10 25
26 26 35 1 29 35 75 60 82 13 4 49 7 79 8 52 1 60 13 15 24 -19 4 -18 5 4 14
16 6 20 12 13 17 -6 4 -20 2 -31 -4 -11 -5 -22 -6 -25 -1 -3 5 8 11 25 15 17
3 28 10 24 16 -7 11 -10 11 -47 0z m-43 -40 c-3 -5 -18 -10 -33 -9 -24 0 -25
1 -7 9 28 12 47 12 40 0z m-92 -41 c-10 -17 -27 -38 -37 -47 -11 -9 -5 4 14
31 38 53 50 62 23 16z m6 -67 c-5 -16 -28 -46 -50 -68 l-41 -39 42 68 c44 70
66 87 49 39z m-458 -9 c13 -16 12 -17 -3 -4 -10 7 -18 15 -18 17 0 8 8 3 21
-13z m364 -60 c-10 -16 -25 -37 -35 -48 -9 -11 -23 -35 -30 -53 -7 -18 -16
-35 -21 -37 -17 -11 38 105 64 134 34 38 45 40 22 4z m-360 -78 c19 -15 18
-15 -12 -1 -17 9 -35 21 -39 27 -8 13 21 -1 51 -26z m172 -107 c-3 -8 -6 -5
-6 6 -1 11 2 17 5 13 3 -3 4 -12 1 -19z m262 -72 c-10 -10 -59 -14 -64 -5 -4
5 11 9 31 9 21 0 35 -2 33 -4z m-88 -45 c-6 -10 -23 -26 -38 -36 l-28 -19 30
36 c32 39 52 50 36 19z m1015 -3746 c-1 -8 -5 -17 -8 -21 -5 -4 -4 16 1 34 3
9 9 -1 7 -13z m-1816 -2285 c0 -5 -2 -10 -4 -10 -3 0 -8 5 -11 10 -3 6 -1 10
4 10 6 0 11 -4 11 -10z"/>
<path d="M2270 3680 c-13 -8 -12 -10 3 -10 9 0 17 5 17 10 0 12 -1 12 -20 0z"/>
<path d="M2176 3487 c3 -10 9 -15 12 -12 3 3 0 11 -7 18 -10 9 -11 8 -5 -6z"/>
<path d="M5158 2683 c7 -3 16 -2 19 1 4 3 -2 6 -13 5 -11 0 -14 -3 -6 -6z"/>
<path d="M4435 769 c-4 -6 -5 -12 -2 -15 2 -3 7 2 10 11 7 17 1 20 -8 4z"/>
<path d="M2710 136 c0 -2 7 -7 16 -10 8 -3 12 -2 9 4 -6 10 -25 14 -25 6z"/>
</g>
</svg>
